<?xml version="1.0" encoding="utf-8"?>
<!-- Generator: Adobe Illustrator 23.0.3, SVG Export Plug-In . SVG Version: 6.00 Build 0)  -->
<svg version="1.1" id="Layer_1" xmlns="http://www.w3.org/2000/svg" xmlns:xlink="http://www.w3.org/1999/xlink" x="0px" y="0px"
	 viewBox="0 0 535.8 200.2" style="enable-background:new 0 0 535.8 200.2;" xml:space="preserve">
<style type="text/css">
	.st0{fill:#111111;}
</style>
<path class="st0" d="M260.2,97.4h-7.7V79.9h7c8.5,0,12.7,2.9,12.7,8.8C272.1,94.5,268.1,97.4,260.2,97.4 M281.7,68.6
	c-4.5-3.7-12.2-5.6-23-5.6h-24.6v74.9h18.3v-23.5h8.2c10,0,17.3-2.2,21.9-6.5c5.2-4.9,7.9-11.3,7.9-19.4
	C290.4,80.1,287.5,73.4,281.7,68.6 M321.8,63h-19.1v74.9h41.2v-17h-22.1V63z M381.1,111.8l7.9-25.6l7.7,25.6H381.1z M381.3,63
	l-30,74.9h20.6l3.9-10.9h26.1l3.6,10.9h20.8L396.5,63H381.3z M435.8,137.9h19.1V63h-19.1L435.8,137.9L435.8,137.9z M498.5,120.9
	h-8.2v-41h8.3c5.8,0,10.3,1.8,13.5,5.4c3.1,3.6,4.7,8.7,4.7,15.4C516.8,114.2,510.7,120.9,498.5,120.9 M529,77
	c-2.5-3.6-5.6-6.5-9.1-8.7c-5.8-3.6-13.6-5.4-23.6-5.4h-25.2v74.9h29.4c10.6,0,19.2-3.4,25.6-10.3c6.4-6.9,9.7-16,9.7-27.4
	C535.9,91.1,533.6,83.4,529,77 M184.1,184.1l16-62.4l-21.6-21.6l21.6-21.7l-16-62.4L121.7,0l-21.6,21.7L78.4,0.1L16,16.1L0,78.5
	l21.7,21.6L0,121.8l16,62.4l62.4,16l21.7-21.7l21.6,21.6L184.1,184.1z M112.4,166l20.6-20.6l26.2,26.2l-32.8,8.4L112.4,166z
	 M79.4,67L100,46.4L120.6,67L100,87.6L79.4,67z M87.7,100l-20.6,20.6L46.5,100l20.6-20.6L87.7,100z M133,79.4l20.6,20.6L133,120.6
	L112.4,100L133,79.4z M120.7,133l-20.6,20.6L79.5,133l20.6-20.6L120.7,133z M73.6,180l-32.8-8.4L67,145.4L87.6,166L73.6,180z
	 M34.1,112.4L54.7,133l-26.2,26.2l-8.4-32.8L34.1,112.4z M28.4,40.8L54.6,67L34.1,87.7l-14-14L28.4,40.8z M87.7,34.1L67.1,54.7
	L40.9,28.5l32.8-8.4L87.7,34.1z M126.4,20l32.8,8.4L133,54.6l-20.6-20.5L126.4,20z M166,87.7l-20.6-20.6l26.2-26.2l8.4,32.8
	L166,87.7z M171.6,159.3l-26.2-26.2l20.6-20.6l14,14L171.6,159.3z"/>
</svg>
